# Blender 5.0.1
# www.blender.org
o Cylinder
v 0.000000 0.010000 -0.300000
v 0.000000 0.010000 0.300000
v 0.007071 0.007071 -0.300000
v 0.007071 0.007071 0.300000
v 0.010000 0.000000 -0.300000
v 0.010000 -0.000000 0.300000
v 0.007071 -0.007071 -0.300000
v 0.007071 -0.007071 0.300000
v 0.000000 -0.010000 -0.300000
v 0.000000 -0.010000 0.300000
v -0.007071 -0.007071 -0.300000
v -0.007071 -0.007071 0.300000
v -0.010000 0.000000 -0.300000
v -0.010000 -0.000000 0.300000
v -0.007071 0.007071 -0.300000
v -0.007071 0.007071 0.300000
vn 0.3827 0.9239 -0.0000
vn 0.9239 0.3827 -0.0000
vn 0.9239 -0.3827 -0.0000
vn 0.3827 -0.9239 -0.0000
vn -0.3827 -0.9239 -0.0000
vn -0.9239 -0.3827 -0.0000
vn -0.0000 -0.0000 1.0000
vn -0.9239 0.3827 -0.0000
vn -0.3827 0.9239 -0.0000
vn -0.0000 -0.0000 -1.0000
s 0
f 1//1 2//1 4//1 3//1
f 3//2 4//2 6//2 5//2
f 5//3 6//3 8//3 7//3
f 7//4 8//4 10//4 9//4
f 9//5 10//5 12//5 11//5
f 11//6 12//6 14//6 13//6
f 4//7 2//7 16//7 14//7 12//7 10//7 8//7 6//7
f 13//8 14//8 16//8 15//8
f 15//9 16//9 2//9 1//9
f 1//10 3//10 5//10 7//10 9//10 11//10 13//10 15//10
o Cube.001
v -0.002860 0.003484 -0.339513
v -0.012419 0.010278 -0.299513
v -0.012419 -0.010186 -0.299513
v -0.002860 -0.002887 -0.339513
v 0.002506 0.003484 -0.339513
v 0.002506 -0.002887 -0.339513
v 0.012792 0.010278 -0.299513
v 0.012792 -0.010186 -0.299513
vn -0.9726 -0.0000 -0.2324
vn -0.0000 -0.0000 1.0000
vn -0.0000 -0.9838 -0.1795
vn -0.0000 -0.0000 -1.0000
vn -0.0000 0.9859 -0.1675
vn 0.9685 -0.0000 -0.2490
s 0
f 19//11 18//11 17//11 20//11
f 24//12 23//12 18//12 19//12
f 20//13 22//13 24//13 19//13
f 20//14 17//14 21//14 22//14
f 17//15 18//15 23//15 21//15
f 24//16 22//16 21//16 23//16
o Cube.011
v -0.000964 0.008337 0.291000
v -0.000964 0.008337 0.251000
v 0.000964 0.008337 0.291000
v 0.000964 0.008337 0.251000
v -0.000964 0.012364 0.251000
v 0.000964 0.012364 0.251000
v 0.000964 0.026320 0.291000
v -0.000964 0.026320 0.291000
vn -0.0000 -1.0000 -0.0000
vn -0.0000 0.9442 -0.3294
vn -0.0000 -0.0000 1.0000
vn 1.0000 -0.0000 -0.0000
vn -0.0000 -0.0000 -1.0000
vn -1.0000 -0.0000 -0.0000
s 0
f 26//17 28//17 27//17 25//17
f 32//18 31//18 30//18 29//18
f 27//19 31//19 32//19 25//19
f 28//20 30//20 31//20 27//20
f 26//21 29//21 30//21 28//21
f 25//22 32//22 29//22 26//22
o Cube.012
v 0.007955 -0.003488 0.291000
v 0.007955 -0.003488 0.251000
v 0.007295 -0.005301 0.291000
v 0.007295 -0.005301 0.251000
v 0.011739 -0.004866 0.251000
v 0.011079 -0.006678 0.251000
v 0.024193 -0.011451 0.291000
v 0.024853 -0.009639 0.291000
vn -0.9397 0.3420 -0.0000
vn 0.8872 -0.3229 -0.3294
vn -0.0000 -0.0000 1.0000
vn -0.3420 -0.9397 -0.0000
vn -0.0000 -0.0000 -1.0000
vn 0.3420 0.9397 -0.0000
s 0
f 34//23 36//23 35//23 33//23
f 40//24 39//24 38//24 37//24
f 35//25 39//25 40//25 33//25
f 36//26 38//26 39//26 35//26
f 34//27 37//27 38//27 36//27
f 33//28 40//28 37//28 34//28
o Cube.013
v -0.007584 -0.004587 0.291000
v -0.007584 -0.004587 0.251000
v -0.008399 -0.002839 0.291000
v -0.008399 -0.002839 0.251000
v -0.011234 -0.006289 0.251000
v -0.012049 -0.004541 0.251000
v -0.024697 -0.010439 0.291000
v -0.023882 -0.012187 0.291000
vn 0.9063 0.4226 -0.0000
vn -0.8557 -0.3990 -0.3294
vn -0.0000 -0.0000 1.0000
vn -0.4226 0.9063 -0.0000
vn -0.0000 -0.0000 -1.0000
vn 0.4226 -0.9063 -0.0000
s 0
f 42//29 44//29 43//29 41//29
f 48//30 47//30 46//30 45//30
f 43//31 47//31 48//31 41//31
f 44//32 46//32 47//32 43//32
f 42//33 45//33 46//33 44//33
f 41//34 48//34 45//34 42//34
