# Blender 5.0.1
# www.blender.org
o Cylinder
v 0.001357 -0.183113 -0.042723
v 0.001357 0.009109 -0.042723
v 0.009644 -0.183113 -0.041907
v 0.009644 0.009109 -0.041907
v 0.017613 -0.183113 -0.039490
v 0.017613 0.009109 -0.039490
v 0.024956 -0.183113 -0.035565
v 0.024956 0.009109 -0.035565
v 0.031394 -0.183113 -0.030282
v 0.031394 0.009109 -0.030282
v 0.036676 -0.183113 -0.023845
v 0.036676 0.009109 -0.023845
v 0.040602 -0.183113 -0.016501
v 0.040602 0.009109 -0.016501
v 0.043020 -0.183113 -0.008532
v 0.043020 0.009109 -0.008532
v 0.043836 -0.183113 -0.000245
v 0.043836 0.009109 -0.000245
v 0.043020 -0.183113 0.008042
v 0.043020 0.009109 0.008042
v 0.040602 -0.183113 0.016010
v 0.040602 0.009109 0.016010
v 0.036676 -0.183113 0.023354
v 0.036676 0.009109 0.023354
v 0.031394 -0.183113 0.029792
v 0.031394 0.009109 0.029792
v 0.024956 -0.183113 0.035074
v 0.024956 0.009109 0.035074
v 0.017613 -0.183113 0.039000
v 0.017613 0.009109 0.039000
v 0.009644 -0.183113 0.041417
v 0.009644 0.009109 0.041417
v 0.001357 -0.183113 0.042234
v 0.001357 0.009109 0.042234
v -0.006930 -0.183113 0.041417
v -0.006930 0.009109 0.041417
v -0.014899 -0.183113 0.039000
v -0.014899 0.009109 0.039000
v -0.022243 -0.183113 0.035074
v -0.022243 0.009109 0.035074
v -0.028680 -0.183113 0.029792
v -0.028680 0.009109 0.029792
v -0.033962 -0.183113 0.023354
v -0.033962 0.009109 0.023354
v -0.037888 -0.183113 0.016010
v -0.037888 0.009109 0.016010
v -0.040305 -0.183113 0.008042
v -0.040305 0.009109 0.008042
v -0.041121 -0.183113 -0.000245
v -0.041121 0.009109 -0.000245
v -0.040305 -0.183113 -0.008532
v -0.040305 0.009109 -0.008532
v -0.037888 -0.183113 -0.016501
v -0.037888 0.009109 -0.016501
v -0.033962 -0.183113 -0.023845
v -0.033962 0.009109 -0.023845
v -0.028680 -0.183113 -0.030282
v -0.028680 0.009109 -0.030282
v -0.022243 -0.183113 -0.035565
v -0.022243 0.009109 -0.035565
v -0.014899 -0.183113 -0.039490
v -0.014899 0.009109 -0.039490
v -0.006930 -0.183113 -0.041907
v -0.006930 0.009109 -0.041907
vn 0.0980 -0.0000 -0.9952
vn 0.2903 -0.0000 -0.9569
vn 0.4714 -0.0000 -0.8819
vn 0.6344 -0.0000 -0.7730
vn 0.7730 -0.0000 -0.6344
vn 0.8819 -0.0000 -0.4714
vn 0.9569 -0.0000 -0.2903
vn 0.9952 -0.0000 -0.0980
vn 0.9952 -0.0000 0.0980
vn 0.9569 -0.0000 0.2903
vn 0.8819 -0.0000 0.4714
vn 0.7731 -0.0000 0.6343
vn 0.6343 -0.0000 0.7731
vn 0.4715 -0.0000 0.8819
vn 0.2902 -0.0000 0.9570
vn 0.0981 -0.0000 0.9952
vn -0.0981 -0.0000 0.9952
vn -0.2902 -0.0000 0.9570
vn -0.4714 -0.0000 0.8819
vn -0.6344 -0.0000 0.7730
vn -0.7731 -0.0000 0.6343
vn -0.8819 -0.0000 0.4714
vn -0.9569 -0.0000 0.2903
vn -0.9952 -0.0000 0.0980
vn -0.9952 -0.0000 -0.0980
vn -0.9569 -0.0000 -0.2903
vn -0.8819 -0.0000 -0.4714
vn -0.7730 -0.0000 -0.6344
vn -0.6344 -0.0000 -0.7730
vn -0.4713 -0.0000 -0.8820
vn -0.0000 1.0000 -0.0000
vn -0.2903 -0.0000 -0.9569
vn -0.0980 -0.0000 -0.9952
vn -0.0000 -1.0000 -0.0000
s 1
f 1//1 2//1 4//1 3//1
f 3//2 4//2 6//2 5//2
f 5//3 6//3 8//3 7//3
f 7//4 8//4 10//4 9//4
f 9//5 10//5 12//5 11//5
f 11//6 12//6 14//6 13//6
f 13//7 14//7 16//7 15//7
f 15//8 16//8 18//8 17//8
f 17//9 18//9 20//9 19//9
f 19//10 20//10 22//10 21//10
f 21//11 22//11 24//11 23//11
f 23//12 24//12 26//12 25//12
f 25//13 26//13 28//13 27//13
f 27//14 28//14 30//14 29//14
f 29//15 30//15 32//15 31//15
f 31//16 32//16 34//16 33//16
f 33//17 34//17 36//17 35//17
f 35//18 36//18 38//18 37//18
f 37//19 38//19 40//19 39//19
f 39//20 40//20 42//20 41//20
f 41//21 42//21 44//21 43//21
f 43//22 44//22 46//22 45//22
f 45//23 46//23 48//23 47//23
f 47//24 48//24 50//24 49//24
f 49//25 50//25 52//25 51//25
f 51//26 52//26 54//26 53//26
f 53//27 54//27 56//27 55//27
f 55//28 56//28 58//28 57//28
f 57//29 58//29 60//29 59//29
f 59//30 60//30 62//30 61//30
f 4//31 2//31 64//31 62//31 60//31 58//31 56//31 54//31 52//31 50//31 48//31 46//31 44//31 42//31 40//31 38//31 36//31 34//31 32//31 30//31 28//31 26//31 24//31 22//31 20//31 18//31 16//31 14//31 12//31 10//31 8//31 6//31
f 61//32 62//32 64//32 63//32
f 63//33 64//33 2//33 1//33
f 1//34 3//34 5//34 7//34 9//34 11//34 13//34 15//34 17//34 19//34 21//34 23//34 25//34 27//34 29//34 31//34 33//34 35//34 37//34 39//34 41//34 43//34 45//34 47//34 49//34 51//34 53//34 55//34 57//34 59//34 61//34 63//34
o Cube.001
v -0.036247 0.007074 -0.000329
v -0.000329 0.007074 -0.073054
v -0.000329 0.576792 -0.073054
v -0.000329 0.007074 0.072396
v -0.000329 0.576792 0.072396
v 0.035589 0.007074 -0.000329
v -0.036247 0.570455 -0.000329
v 0.035589 0.570378 -0.000329
v 0.000212 0.769139 0.043053
v -0.000702 0.768318 0.043513
v -0.000835 0.836979 0.005026
v -0.006283 0.795980 0.028008
v 0.005739 0.796540 0.027693
v 0.000402 0.836979 0.005026
v -0.000702 0.768318 -0.041614
v -0.006413 0.795000 -0.025616
v 0.000211 0.769091 -0.041151
v 0.005872 0.795538 -0.025293
v -0.000835 0.836979 -0.000445
v 0.000402 0.836979 -0.000445
vn -0.0000 -1.0000 -0.0000
vn -0.0000 1.0000 -0.0000
vn -0.0000 0.4890 0.8723
vn -0.0000 0.5142 -0.8576
vn -0.8970 0.0117 0.4420
vn 0.3418 0.1408 0.9292
vn 0.8970 0.0117 0.4420
vn 0.9914 0.1308 -0.0000
vn 0.8970 0.0128 -0.4419
vn -0.9913 0.1317 -0.0000
vn 0.3412 0.1529 -0.9275
vn -0.8970 0.0128 -0.4419
s 0
f 66//35 70//35 68//35 65//35
f 84//36 83//36 75//36 78//36
f 77//37 78//37 75//37 76//37 74//37 73//37
f 79//38 80//38 83//38 84//38 82//38 81//38
f 68//39 69//39 74//39 76//39 71//39 65//39
f 73//40 74//40 69//40
f 70//41 72//41 77//41 73//41 69//41 68//41
f 72//42 82//42 84//42 78//42 77//42
f 66//43 67//43 81//43 82//43 72//43 70//43
f 71//44 76//44 75//44 83//44 80//44
f 81//45 67//45 79//45
f 65//46 71//46 80//46 79//46 67//46 66//46
